<?xml version="1.0" standalone="no"?>
<!DOCTYPE svg PUBLIC "-//W3C//DTD SVG 20010904//EN"
 "http://www.w3.org/TR/2001/REC-SVG-20010904/DTD/svg10.dtd">
<svg version="1.0" xmlns="http://www.w3.org/2000/svg"
 width="150.000000pt" height="133.000000pt" viewBox="0 0 150.000000 133.000000"
 preserveAspectRatio="xMidYMid meet">

<g transform="translate(0.000000,133.000000) scale(0.100000,-0.100000)"
fill="#000000" stroke="none">
<path d="M403 1212 l-153 -77 0 -426 0 -427 53 -20 c105 -41 168 -62 186 -62
11 0 85 32 166 72 l147 71 -113 42 -114 42 -3 431 c-1 238 -6 432 -10 431 -4
0 -76 -35 -159 -77z"/>
<path d="M781 218 c-79 -37 -147 -68 -152 -68 -35 0 13 -24 149 -77 86 -33
165 -64 175 -68 16 -7 17 3 17 133 0 138 0 140 -23 144 -15 3 -74 -20 -166
-64z"/>
</g>
</svg>
